# xmcd CD database file
#
# Track frame offsets:
#	150
#	29535
#	44372
#	75049
#	89564
#	99969
#	111179
#	125806
#	148630
#	176264
#	191057
#	219055
#	249914
#	276365
#	314643
#
# Disc length: 4291 seconds
#
# Revision: 0
# Processed by: cddbd v1.5.1PL0 Copyright (c) Steve Scherf et al.
# Submitted via: CDex 1.51
#
DISCID=cc10c10f
DTITLE=College of Wooster Jazz Ensemble - Live with Stefon Harris
DYEAR=2004
DGENRE=Jazz
TTITLE0=There's the Rub
TTITLE1=Pensive Miss
TTITLE2=The Suncatchers
TTITLE3=Just Friends
TTITLE4=Baby, Won't You Please Come Home?
TTITLE5=What a Little Moonlight Can Do
TTITLE6=All of Me
TTITLE7=Airmail Special
TTITLE8=Red Top
TTITLE9=Midnight Sun
TTITLE10=The Lost Ones
TTITLE11=(unknown title, composed by a friend to Stefon Harris)
TTITLE12=Hey Ba-ba-re-bop
TTITLE13=Flying Home
TTITLE14=Hamp's Boogie
EXTD=YEAR: 2004
EXTT0=
EXTT1=
EXTT2=
EXTT3=
EXTT4=
EXTT5=
EXTT6=
EXTT7=
EXTT8=
EXTT9=
EXTT10=
EXTT11=
EXTT12=
EXTT13=
EXTT14=
PLAYORDER=
